%TF.GenerationSoftware,KiCad,Pcbnew,8.0.7*%
%TF.CreationDate,2025-02-18T21:35:20-08:00*%
%TF.ProjectId,USB_555timer,5553425f-3535-4357-9469-6d65722e6b69,rev?*%
%TF.SameCoordinates,Original*%
%TF.FileFunction,Legend,Top*%
%TF.FilePolarity,Positive*%
%FSLAX46Y46*%
G04 Gerber Fmt 4.6, Leading zero omitted, Abs format (unit mm)*
G04 Created by KiCad (PCBNEW 8.0.7) date 2025-02-18 21:35:20*
%MOMM*%
%LPD*%
G01*
G04 APERTURE LIST*
%ADD10C,0.150000*%
%ADD11C,0.100000*%
%ADD12C,0.120000*%
G04 APERTURE END LIST*
D10*
X160766666Y-92454819D02*
X160766666Y-93169104D01*
X160766666Y-93169104D02*
X160719047Y-93311961D01*
X160719047Y-93311961D02*
X160623809Y-93407200D01*
X160623809Y-93407200D02*
X160480952Y-93454819D01*
X160480952Y-93454819D02*
X160385714Y-93454819D01*
X161195238Y-92550057D02*
X161242857Y-92502438D01*
X161242857Y-92502438D02*
X161338095Y-92454819D01*
X161338095Y-92454819D02*
X161576190Y-92454819D01*
X161576190Y-92454819D02*
X161671428Y-92502438D01*
X161671428Y-92502438D02*
X161719047Y-92550057D01*
X161719047Y-92550057D02*
X161766666Y-92645295D01*
X161766666Y-92645295D02*
X161766666Y-92740533D01*
X161766666Y-92740533D02*
X161719047Y-92883390D01*
X161719047Y-92883390D02*
X161147619Y-93454819D01*
X161147619Y-93454819D02*
X161766666Y-93454819D01*
D11*
X134463095Y-98457419D02*
X134463095Y-99266942D01*
X134463095Y-99266942D02*
X134510714Y-99362180D01*
X134510714Y-99362180D02*
X134558333Y-99409800D01*
X134558333Y-99409800D02*
X134653571Y-99457419D01*
X134653571Y-99457419D02*
X134844047Y-99457419D01*
X134844047Y-99457419D02*
X134939285Y-99409800D01*
X134939285Y-99409800D02*
X134986904Y-99362180D01*
X134986904Y-99362180D02*
X135034523Y-99266942D01*
X135034523Y-99266942D02*
X135034523Y-98457419D01*
X135463095Y-98552657D02*
X135510714Y-98505038D01*
X135510714Y-98505038D02*
X135605952Y-98457419D01*
X135605952Y-98457419D02*
X135844047Y-98457419D01*
X135844047Y-98457419D02*
X135939285Y-98505038D01*
X135939285Y-98505038D02*
X135986904Y-98552657D01*
X135986904Y-98552657D02*
X136034523Y-98647895D01*
X136034523Y-98647895D02*
X136034523Y-98743133D01*
X136034523Y-98743133D02*
X135986904Y-98885990D01*
X135986904Y-98885990D02*
X135415476Y-99457419D01*
X135415476Y-99457419D02*
X136034523Y-99457419D01*
X140028884Y-98372419D02*
X140028884Y-99181942D01*
X140028884Y-99181942D02*
X140076503Y-99277180D01*
X140076503Y-99277180D02*
X140124122Y-99324800D01*
X140124122Y-99324800D02*
X140219360Y-99372419D01*
X140219360Y-99372419D02*
X140409836Y-99372419D01*
X140409836Y-99372419D02*
X140505074Y-99324800D01*
X140505074Y-99324800D02*
X140552693Y-99277180D01*
X140552693Y-99277180D02*
X140600312Y-99181942D01*
X140600312Y-99181942D02*
X140600312Y-98372419D01*
X141028884Y-99324800D02*
X141171741Y-99372419D01*
X141171741Y-99372419D02*
X141409836Y-99372419D01*
X141409836Y-99372419D02*
X141505074Y-99324800D01*
X141505074Y-99324800D02*
X141552693Y-99277180D01*
X141552693Y-99277180D02*
X141600312Y-99181942D01*
X141600312Y-99181942D02*
X141600312Y-99086704D01*
X141600312Y-99086704D02*
X141552693Y-98991466D01*
X141552693Y-98991466D02*
X141505074Y-98943847D01*
X141505074Y-98943847D02*
X141409836Y-98896228D01*
X141409836Y-98896228D02*
X141219360Y-98848609D01*
X141219360Y-98848609D02*
X141124122Y-98800990D01*
X141124122Y-98800990D02*
X141076503Y-98753371D01*
X141076503Y-98753371D02*
X141028884Y-98658133D01*
X141028884Y-98658133D02*
X141028884Y-98562895D01*
X141028884Y-98562895D02*
X141076503Y-98467657D01*
X141076503Y-98467657D02*
X141124122Y-98420038D01*
X141124122Y-98420038D02*
X141219360Y-98372419D01*
X141219360Y-98372419D02*
X141457455Y-98372419D01*
X141457455Y-98372419D02*
X141600312Y-98420038D01*
X142362217Y-98848609D02*
X142505074Y-98896228D01*
X142505074Y-98896228D02*
X142552693Y-98943847D01*
X142552693Y-98943847D02*
X142600312Y-99039085D01*
X142600312Y-99039085D02*
X142600312Y-99181942D01*
X142600312Y-99181942D02*
X142552693Y-99277180D01*
X142552693Y-99277180D02*
X142505074Y-99324800D01*
X142505074Y-99324800D02*
X142409836Y-99372419D01*
X142409836Y-99372419D02*
X142028884Y-99372419D01*
X142028884Y-99372419D02*
X142028884Y-98372419D01*
X142028884Y-98372419D02*
X142362217Y-98372419D01*
X142362217Y-98372419D02*
X142457455Y-98420038D01*
X142457455Y-98420038D02*
X142505074Y-98467657D01*
X142505074Y-98467657D02*
X142552693Y-98562895D01*
X142552693Y-98562895D02*
X142552693Y-98658133D01*
X142552693Y-98658133D02*
X142505074Y-98753371D01*
X142505074Y-98753371D02*
X142457455Y-98800990D01*
X142457455Y-98800990D02*
X142362217Y-98848609D01*
X142362217Y-98848609D02*
X142028884Y-98848609D01*
D10*
X160313095Y-95654819D02*
X160313095Y-96464342D01*
X160313095Y-96464342D02*
X160360714Y-96559580D01*
X160360714Y-96559580D02*
X160408333Y-96607200D01*
X160408333Y-96607200D02*
X160503571Y-96654819D01*
X160503571Y-96654819D02*
X160694047Y-96654819D01*
X160694047Y-96654819D02*
X160789285Y-96607200D01*
X160789285Y-96607200D02*
X160836904Y-96559580D01*
X160836904Y-96559580D02*
X160884523Y-96464342D01*
X160884523Y-96464342D02*
X160884523Y-95654819D01*
X161884523Y-96654819D02*
X161313095Y-96654819D01*
X161598809Y-96654819D02*
X161598809Y-95654819D01*
X161598809Y-95654819D02*
X161503571Y-95797676D01*
X161503571Y-95797676D02*
X161408333Y-95892914D01*
X161408333Y-95892914D02*
X161313095Y-95940533D01*
X155304819Y-100166666D02*
X154828628Y-100499999D01*
X155304819Y-100738094D02*
X154304819Y-100738094D01*
X154304819Y-100738094D02*
X154304819Y-100357142D01*
X154304819Y-100357142D02*
X154352438Y-100261904D01*
X154352438Y-100261904D02*
X154400057Y-100214285D01*
X154400057Y-100214285D02*
X154495295Y-100166666D01*
X154495295Y-100166666D02*
X154638152Y-100166666D01*
X154638152Y-100166666D02*
X154733390Y-100214285D01*
X154733390Y-100214285D02*
X154781009Y-100261904D01*
X154781009Y-100261904D02*
X154828628Y-100357142D01*
X154828628Y-100357142D02*
X154828628Y-100738094D01*
X154638152Y-99309523D02*
X155304819Y-99309523D01*
X154257200Y-99547618D02*
X154971485Y-99785713D01*
X154971485Y-99785713D02*
X154971485Y-99166666D01*
X152604819Y-96666666D02*
X152128628Y-96999999D01*
X152604819Y-97238094D02*
X151604819Y-97238094D01*
X151604819Y-97238094D02*
X151604819Y-96857142D01*
X151604819Y-96857142D02*
X151652438Y-96761904D01*
X151652438Y-96761904D02*
X151700057Y-96714285D01*
X151700057Y-96714285D02*
X151795295Y-96666666D01*
X151795295Y-96666666D02*
X151938152Y-96666666D01*
X151938152Y-96666666D02*
X152033390Y-96714285D01*
X152033390Y-96714285D02*
X152081009Y-96761904D01*
X152081009Y-96761904D02*
X152128628Y-96857142D01*
X152128628Y-96857142D02*
X152128628Y-97238094D01*
X151604819Y-96333332D02*
X151604819Y-95714285D01*
X151604819Y-95714285D02*
X151985771Y-96047618D01*
X151985771Y-96047618D02*
X151985771Y-95904761D01*
X151985771Y-95904761D02*
X152033390Y-95809523D01*
X152033390Y-95809523D02*
X152081009Y-95761904D01*
X152081009Y-95761904D02*
X152176247Y-95714285D01*
X152176247Y-95714285D02*
X152414342Y-95714285D01*
X152414342Y-95714285D02*
X152509580Y-95761904D01*
X152509580Y-95761904D02*
X152557200Y-95809523D01*
X152557200Y-95809523D02*
X152604819Y-95904761D01*
X152604819Y-95904761D02*
X152604819Y-96190475D01*
X152604819Y-96190475D02*
X152557200Y-96285713D01*
X152557200Y-96285713D02*
X152509580Y-96333332D01*
X168604819Y-100166666D02*
X168128628Y-100499999D01*
X168604819Y-100738094D02*
X167604819Y-100738094D01*
X167604819Y-100738094D02*
X167604819Y-100357142D01*
X167604819Y-100357142D02*
X167652438Y-100261904D01*
X167652438Y-100261904D02*
X167700057Y-100214285D01*
X167700057Y-100214285D02*
X167795295Y-100166666D01*
X167795295Y-100166666D02*
X167938152Y-100166666D01*
X167938152Y-100166666D02*
X168033390Y-100214285D01*
X168033390Y-100214285D02*
X168081009Y-100261904D01*
X168081009Y-100261904D02*
X168128628Y-100357142D01*
X168128628Y-100357142D02*
X168128628Y-100738094D01*
X167700057Y-99785713D02*
X167652438Y-99738094D01*
X167652438Y-99738094D02*
X167604819Y-99642856D01*
X167604819Y-99642856D02*
X167604819Y-99404761D01*
X167604819Y-99404761D02*
X167652438Y-99309523D01*
X167652438Y-99309523D02*
X167700057Y-99261904D01*
X167700057Y-99261904D02*
X167795295Y-99214285D01*
X167795295Y-99214285D02*
X167890533Y-99214285D01*
X167890533Y-99214285D02*
X168033390Y-99261904D01*
X168033390Y-99261904D02*
X168604819Y-99833332D01*
X168604819Y-99833332D02*
X168604819Y-99214285D01*
X150954819Y-102166666D02*
X150478628Y-102499999D01*
X150954819Y-102738094D02*
X149954819Y-102738094D01*
X149954819Y-102738094D02*
X149954819Y-102357142D01*
X149954819Y-102357142D02*
X150002438Y-102261904D01*
X150002438Y-102261904D02*
X150050057Y-102214285D01*
X150050057Y-102214285D02*
X150145295Y-102166666D01*
X150145295Y-102166666D02*
X150288152Y-102166666D01*
X150288152Y-102166666D02*
X150383390Y-102214285D01*
X150383390Y-102214285D02*
X150431009Y-102261904D01*
X150431009Y-102261904D02*
X150478628Y-102357142D01*
X150478628Y-102357142D02*
X150478628Y-102738094D01*
X150954819Y-101214285D02*
X150954819Y-101785713D01*
X150954819Y-101499999D02*
X149954819Y-101499999D01*
X149954819Y-101499999D02*
X150097676Y-101595237D01*
X150097676Y-101595237D02*
X150192914Y-101690475D01*
X150192914Y-101690475D02*
X150240533Y-101785713D01*
X167604819Y-100800594D02*
X166604819Y-100800594D01*
X166604819Y-100800594D02*
X166604819Y-100562499D01*
X166604819Y-100562499D02*
X166652438Y-100419642D01*
X166652438Y-100419642D02*
X166747676Y-100324404D01*
X166747676Y-100324404D02*
X166842914Y-100276785D01*
X166842914Y-100276785D02*
X167033390Y-100229166D01*
X167033390Y-100229166D02*
X167176247Y-100229166D01*
X167176247Y-100229166D02*
X167366723Y-100276785D01*
X167366723Y-100276785D02*
X167461961Y-100324404D01*
X167461961Y-100324404D02*
X167557200Y-100419642D01*
X167557200Y-100419642D02*
X167604819Y-100562499D01*
X167604819Y-100562499D02*
X167604819Y-100800594D01*
X166604819Y-99895832D02*
X166604819Y-99276785D01*
X166604819Y-99276785D02*
X166985771Y-99610118D01*
X166985771Y-99610118D02*
X166985771Y-99467261D01*
X166985771Y-99467261D02*
X167033390Y-99372023D01*
X167033390Y-99372023D02*
X167081009Y-99324404D01*
X167081009Y-99324404D02*
X167176247Y-99276785D01*
X167176247Y-99276785D02*
X167414342Y-99276785D01*
X167414342Y-99276785D02*
X167509580Y-99324404D01*
X167509580Y-99324404D02*
X167557200Y-99372023D01*
X167557200Y-99372023D02*
X167604819Y-99467261D01*
X167604819Y-99467261D02*
X167604819Y-99752975D01*
X167604819Y-99752975D02*
X167557200Y-99848213D01*
X167557200Y-99848213D02*
X167509580Y-99895832D01*
X149454819Y-103088094D02*
X148454819Y-103088094D01*
X148454819Y-103088094D02*
X148454819Y-102849999D01*
X148454819Y-102849999D02*
X148502438Y-102707142D01*
X148502438Y-102707142D02*
X148597676Y-102611904D01*
X148597676Y-102611904D02*
X148692914Y-102564285D01*
X148692914Y-102564285D02*
X148883390Y-102516666D01*
X148883390Y-102516666D02*
X149026247Y-102516666D01*
X149026247Y-102516666D02*
X149216723Y-102564285D01*
X149216723Y-102564285D02*
X149311961Y-102611904D01*
X149311961Y-102611904D02*
X149407200Y-102707142D01*
X149407200Y-102707142D02*
X149454819Y-102849999D01*
X149454819Y-102849999D02*
X149454819Y-103088094D01*
X148550057Y-102135713D02*
X148502438Y-102088094D01*
X148502438Y-102088094D02*
X148454819Y-101992856D01*
X148454819Y-101992856D02*
X148454819Y-101754761D01*
X148454819Y-101754761D02*
X148502438Y-101659523D01*
X148502438Y-101659523D02*
X148550057Y-101611904D01*
X148550057Y-101611904D02*
X148645295Y-101564285D01*
X148645295Y-101564285D02*
X148740533Y-101564285D01*
X148740533Y-101564285D02*
X148883390Y-101611904D01*
X148883390Y-101611904D02*
X149454819Y-102183332D01*
X149454819Y-102183332D02*
X149454819Y-101564285D01*
X155954819Y-100588094D02*
X154954819Y-100588094D01*
X154954819Y-100588094D02*
X154954819Y-100349999D01*
X154954819Y-100349999D02*
X155002438Y-100207142D01*
X155002438Y-100207142D02*
X155097676Y-100111904D01*
X155097676Y-100111904D02*
X155192914Y-100064285D01*
X155192914Y-100064285D02*
X155383390Y-100016666D01*
X155383390Y-100016666D02*
X155526247Y-100016666D01*
X155526247Y-100016666D02*
X155716723Y-100064285D01*
X155716723Y-100064285D02*
X155811961Y-100111904D01*
X155811961Y-100111904D02*
X155907200Y-100207142D01*
X155907200Y-100207142D02*
X155954819Y-100349999D01*
X155954819Y-100349999D02*
X155954819Y-100588094D01*
X155954819Y-99064285D02*
X155954819Y-99635713D01*
X155954819Y-99349999D02*
X154954819Y-99349999D01*
X154954819Y-99349999D02*
X155097676Y-99445237D01*
X155097676Y-99445237D02*
X155192914Y-99540475D01*
X155192914Y-99540475D02*
X155240533Y-99635713D01*
X149209580Y-96604166D02*
X149257200Y-96651785D01*
X149257200Y-96651785D02*
X149304819Y-96794642D01*
X149304819Y-96794642D02*
X149304819Y-96889880D01*
X149304819Y-96889880D02*
X149257200Y-97032737D01*
X149257200Y-97032737D02*
X149161961Y-97127975D01*
X149161961Y-97127975D02*
X149066723Y-97175594D01*
X149066723Y-97175594D02*
X148876247Y-97223213D01*
X148876247Y-97223213D02*
X148733390Y-97223213D01*
X148733390Y-97223213D02*
X148542914Y-97175594D01*
X148542914Y-97175594D02*
X148447676Y-97127975D01*
X148447676Y-97127975D02*
X148352438Y-97032737D01*
X148352438Y-97032737D02*
X148304819Y-96889880D01*
X148304819Y-96889880D02*
X148304819Y-96794642D01*
X148304819Y-96794642D02*
X148352438Y-96651785D01*
X148352438Y-96651785D02*
X148400057Y-96604166D01*
X149304819Y-95651785D02*
X149304819Y-96223213D01*
X149304819Y-95937499D02*
X148304819Y-95937499D01*
X148304819Y-95937499D02*
X148447676Y-96032737D01*
X148447676Y-96032737D02*
X148542914Y-96127975D01*
X148542914Y-96127975D02*
X148590533Y-96223213D01*
X160566666Y-100954819D02*
X160566666Y-101669104D01*
X160566666Y-101669104D02*
X160519047Y-101811961D01*
X160519047Y-101811961D02*
X160423809Y-101907200D01*
X160423809Y-101907200D02*
X160280952Y-101954819D01*
X160280952Y-101954819D02*
X160185714Y-101954819D01*
X161566666Y-101954819D02*
X160995238Y-101954819D01*
X161280952Y-101954819D02*
X161280952Y-100954819D01*
X161280952Y-100954819D02*
X161185714Y-101097676D01*
X161185714Y-101097676D02*
X161090476Y-101192914D01*
X161090476Y-101192914D02*
X160995238Y-101240533D01*
%TO.C,U2*%
D11*
X139225000Y-95000000D02*
X144225000Y-95000000D01*
X144225000Y-104000000D01*
X139225000Y-104000000D01*
X139225000Y-95000000D01*
D12*
%TO.C,U1*%
X158965000Y-98115000D02*
X158965000Y-97630000D01*
X158965000Y-101610000D02*
X158965000Y-100885000D01*
X159690000Y-97390000D02*
X159265000Y-97390000D01*
X159690000Y-101610000D02*
X158965000Y-101610000D01*
X162460000Y-97390000D02*
X163185000Y-97390000D01*
X162460000Y-101610000D02*
X163185000Y-101610000D01*
X163185000Y-97390000D02*
X163185000Y-98115000D01*
X163185000Y-101610000D02*
X163185000Y-100885000D01*
X158965000Y-97390000D02*
X158725000Y-97060000D01*
X159205000Y-97060000D01*
X158965000Y-97390000D01*
G36*
X158965000Y-97390000D02*
G01*
X158725000Y-97060000D01*
X159205000Y-97060000D01*
X158965000Y-97390000D01*
G37*
%TO.C,R4*%
X157235000Y-100227064D02*
X157235000Y-99772936D01*
X155765000Y-100227064D02*
X155765000Y-99772936D01*
%TO.C,R3*%
X151235000Y-96272936D02*
X151235000Y-96727064D01*
X149765000Y-96272936D02*
X149765000Y-96727064D01*
%TO.C,R2*%
X167235000Y-99772936D02*
X167235000Y-100227064D01*
X165765000Y-99772936D02*
X165765000Y-100227064D01*
%TO.C,R1*%
X149765000Y-102227064D02*
X149765000Y-101772936D01*
X151235000Y-102227064D02*
X151235000Y-101772936D01*
%TO.C,D3*%
X168090000Y-100773752D02*
X168090000Y-99351248D01*
X169910000Y-100773752D02*
X169910000Y-99351248D01*
%TO.C,D2*%
X148000000Y-99990000D02*
X146000000Y-99990000D01*
X148000000Y-99990000D02*
X148000000Y-104000000D01*
X146000000Y-99990000D02*
X146000000Y-104000000D01*
%TO.C,D1*%
X154500000Y-97490000D02*
X152500000Y-97490000D01*
X154500000Y-97490000D02*
X154500000Y-101500000D01*
X152500000Y-97490000D02*
X152500000Y-101500000D01*
%TO.C,C1*%
X147910000Y-95726248D02*
X147910000Y-97148752D01*
X146090000Y-95726248D02*
X146090000Y-97148752D01*
%TD*%
M02*
