M48
; DRILL file {KiCad 8.0.7} date 2025-02-18T21:35:51-0800
; FORMAT={-:-/ absolute / inch / decimal}
; #@! TF.CreationDate,2025-02-18T21:35:51-08:00
; #@! TF.GenerationSoftware,Kicad,Pcbnew,8.0.7
; #@! TF.FileFunction,Plated,1,2,PTH
FMAT,2
INCH
; #@! TA.AperFunction,Plated,PTH,ViaDrill
T1C0.0118
; #@! TA.AperFunction,Plated,PTH,ComponentDrill
T2C0.0236
%
G90
G05
T1
X5.4724Y-3.9961
X5.4921Y-4.0551
X5.4921Y-4.1142
X5.7087Y-3.8189
X5.7087Y-3.8583
X5.7087Y-4.0945
X5.7874Y-3.7992
X5.7874Y-3.8583
X5.7874Y-4.0354
X5.7874Y-4.0945
X5.8465Y-3.8583
X5.9843Y-3.8386
X5.9843Y-3.9173
X6.0433Y-3.9409
X6.0433Y-3.9961
X6.2205Y-3.878
X6.2402Y-3.7992
X6.4606Y-3.8228
X6.4764Y-3.9961
X6.4764Y-4.0551
X6.5157Y-3.7008
X6.5157Y-3.7795
X6.5945Y-3.7008
X6.5945Y-3.7795
X6.6339Y-3.7402
X6.6535Y-3.937
X6.6535Y-4.001
T2
X6.122Y-4.0748
X6.1299Y-3.7402
X6.2638Y-4.0748
X6.2717Y-3.7402
X6.4055Y-4.0748
X6.4134Y-3.7402
X6.5472Y-4.0748
X6.5551Y-3.7402
M30
