%TF.GenerationSoftware,KiCad,Pcbnew,8.0.7*%
%TF.CreationDate,2025-02-18T21:35:20-08:00*%
%TF.ProjectId,USB_555timer,5553425f-3535-4357-9469-6d65722e6b69,rev?*%
%TF.SameCoordinates,Original*%
%TF.FileFunction,Paste,Top*%
%TF.FilePolarity,Positive*%
%FSLAX46Y46*%
G04 Gerber Fmt 4.6, Leading zero omitted, Abs format (unit mm)*
G04 Created by KiCad (PCBNEW 8.0.7) date 2025-02-18 21:35:20*
%MOMM*%
%LPD*%
G01*
G04 APERTURE LIST*
G04 Aperture macros list*
%AMRoundRect*
0 Rectangle with rounded corners*
0 $1 Rounding radius*
0 $2 $3 $4 $5 $6 $7 $8 $9 X,Y pos of 4 corners*
0 Add a 4 corners polygon primitive as box body*
4,1,4,$2,$3,$4,$5,$6,$7,$8,$9,$2,$3,0*
0 Add four circle primitives for the rounded corners*
1,1,$1+$1,$2,$3*
1,1,$1+$1,$4,$5*
1,1,$1+$1,$6,$7*
1,1,$1+$1,$8,$9*
0 Add four rect primitives between the rounded corners*
20,1,$1+$1,$2,$3,$4,$5,0*
20,1,$1+$1,$4,$5,$6,$7,0*
20,1,$1+$1,$6,$7,$8,$9,0*
20,1,$1+$1,$8,$9,$2,$3,0*%
G04 Aperture macros list end*
%ADD10RoundRect,0.500000X-3.000000X-0.500000X3.000000X-0.500000X3.000000X0.500000X-3.000000X0.500000X0*%
%ADD11RoundRect,0.375000X-2.625000X-0.375000X2.625000X-0.375000X2.625000X0.375000X-2.625000X0.375000X0*%
%ADD12RoundRect,0.250000X-0.275000X-0.275000X0.275000X-0.275000X0.275000X0.275000X-0.275000X0.275000X0*%
%ADD13RoundRect,0.062500X-0.362500X-0.062500X0.362500X-0.062500X0.362500X0.062500X-0.362500X0.062500X0*%
%ADD14RoundRect,0.062500X-0.062500X-0.362500X0.062500X-0.362500X0.062500X0.362500X-0.062500X0.362500X0*%
%ADD15RoundRect,0.250000X0.450000X-0.350000X0.450000X0.350000X-0.450000X0.350000X-0.450000X-0.350000X0*%
%ADD16RoundRect,0.250000X-0.450000X0.350000X-0.450000X-0.350000X0.450000X-0.350000X0.450000X0.350000X0*%
%ADD17RoundRect,0.250000X0.650000X-0.412500X0.650000X0.412500X-0.650000X0.412500X-0.650000X-0.412500X0*%
%ADD18RoundRect,0.225000X-0.375000X0.225000X-0.375000X-0.225000X0.375000X-0.225000X0.375000X0.225000X0*%
%ADD19RoundRect,0.250000X-0.650000X0.412500X-0.650000X-0.412500X0.650000X-0.412500X0.650000X0.412500X0*%
G04 APERTURE END LIST*
D10*
%TO.C,U2*%
X135225000Y-95750000D03*
D11*
X135225000Y-98500000D03*
X135225000Y-100500000D03*
D10*
X135225000Y-103250000D03*
%TD*%
D12*
%TO.C,U1*%
X160425000Y-98850000D03*
X160425000Y-100150000D03*
X161725000Y-98850000D03*
X161725000Y-100150000D03*
D13*
X159150000Y-98500000D03*
X159150000Y-99000000D03*
X159150000Y-99500000D03*
X159150000Y-100000000D03*
X159150000Y-100500000D03*
D14*
X160075000Y-101425000D03*
X160575000Y-101425000D03*
X161075000Y-101425000D03*
X161575000Y-101425000D03*
X162075000Y-101425000D03*
D13*
X163000000Y-100500000D03*
X163000000Y-100000000D03*
X163000000Y-99500000D03*
X163000000Y-99000000D03*
X163000000Y-98500000D03*
D14*
X162075000Y-97575000D03*
X161575000Y-97575000D03*
X161075000Y-97575000D03*
X160575000Y-97575000D03*
X160075000Y-97575000D03*
%TD*%
D15*
%TO.C,R4*%
X156500000Y-99000000D03*
X156500000Y-101000000D03*
%TD*%
D16*
%TO.C,R3*%
X150500000Y-95500000D03*
X150500000Y-97500000D03*
%TD*%
%TO.C,R2*%
X166500000Y-99000000D03*
X166500000Y-101000000D03*
%TD*%
D15*
%TO.C,R1*%
X150500000Y-103000000D03*
X150500000Y-101000000D03*
%TD*%
D17*
%TO.C,D3*%
X169000000Y-101625000D03*
X169000000Y-98500000D03*
%TD*%
D18*
%TO.C,D2*%
X147000000Y-100700000D03*
X147000000Y-104000000D03*
%TD*%
%TO.C,D1*%
X153500000Y-98200000D03*
X153500000Y-101500000D03*
%TD*%
D19*
%TO.C,C1*%
X147000000Y-94875000D03*
X147000000Y-98000000D03*
%TD*%
M02*
