%TF.GenerationSoftware,KiCad,Pcbnew,8.0.7*%
%TF.CreationDate,2025-02-18T21:35:20-08:00*%
%TF.ProjectId,USB_555timer,5553425f-3535-4357-9469-6d65722e6b69,rev?*%
%TF.SameCoordinates,Original*%
%TF.FileFunction,Copper,L1,Top*%
%TF.FilePolarity,Positive*%
%FSLAX46Y46*%
G04 Gerber Fmt 4.6, Leading zero omitted, Abs format (unit mm)*
G04 Created by KiCad (PCBNEW 8.0.7) date 2025-02-18 21:35:20*
%MOMM*%
%LPD*%
G01*
G04 APERTURE LIST*
G04 Aperture macros list*
%AMRoundRect*
0 Rectangle with rounded corners*
0 $1 Rounding radius*
0 $2 $3 $4 $5 $6 $7 $8 $9 X,Y pos of 4 corners*
0 Add a 4 corners polygon primitive as box body*
4,1,4,$2,$3,$4,$5,$6,$7,$8,$9,$2,$3,0*
0 Add four circle primitives for the rounded corners*
1,1,$1+$1,$2,$3*
1,1,$1+$1,$4,$5*
1,1,$1+$1,$6,$7*
1,1,$1+$1,$8,$9*
0 Add four rect primitives between the rounded corners*
20,1,$1+$1,$2,$3,$4,$5,0*
20,1,$1+$1,$4,$5,$6,$7,0*
20,1,$1+$1,$6,$7,$8,$9,0*
20,1,$1+$1,$8,$9,$2,$3,0*%
G04 Aperture macros list end*
%TA.AperFunction,ComponentPad*%
%ADD10RoundRect,0.250000X-0.550000X-0.550000X0.550000X-0.550000X0.550000X0.550000X-0.550000X0.550000X0*%
%TD*%
%TA.AperFunction,ComponentPad*%
%ADD11C,1.600000*%
%TD*%
%TA.AperFunction,SMDPad,CuDef*%
%ADD12RoundRect,0.500000X-3.000000X-0.500000X3.000000X-0.500000X3.000000X0.500000X-3.000000X0.500000X0*%
%TD*%
%TA.AperFunction,SMDPad,CuDef*%
%ADD13RoundRect,0.375000X-2.625000X-0.375000X2.625000X-0.375000X2.625000X0.375000X-2.625000X0.375000X0*%
%TD*%
%TA.AperFunction,SMDPad,CuDef*%
%ADD14RoundRect,0.062500X-0.362500X-0.062500X0.362500X-0.062500X0.362500X0.062500X-0.362500X0.062500X0*%
%TD*%
%TA.AperFunction,SMDPad,CuDef*%
%ADD15RoundRect,0.062500X-0.062500X-0.362500X0.062500X-0.362500X0.062500X0.362500X-0.062500X0.362500X0*%
%TD*%
%TA.AperFunction,HeatsinkPad*%
%ADD16R,2.600000X2.600000*%
%TD*%
%TA.AperFunction,SMDPad,CuDef*%
%ADD17RoundRect,0.250000X0.450000X-0.350000X0.450000X0.350000X-0.450000X0.350000X-0.450000X-0.350000X0*%
%TD*%
%TA.AperFunction,SMDPad,CuDef*%
%ADD18RoundRect,0.250000X-0.450000X0.350000X-0.450000X-0.350000X0.450000X-0.350000X0.450000X0.350000X0*%
%TD*%
%TA.AperFunction,SMDPad,CuDef*%
%ADD19RoundRect,0.250000X0.650000X-0.412500X0.650000X0.412500X-0.650000X0.412500X-0.650000X-0.412500X0*%
%TD*%
%TA.AperFunction,SMDPad,CuDef*%
%ADD20RoundRect,0.225000X-0.375000X0.225000X-0.375000X-0.225000X0.375000X-0.225000X0.375000X0.225000X0*%
%TD*%
%TA.AperFunction,SMDPad,CuDef*%
%ADD21RoundRect,0.250000X-0.650000X0.412500X-0.650000X-0.412500X0.650000X-0.412500X0.650000X0.412500X0*%
%TD*%
%TA.AperFunction,ViaPad*%
%ADD22C,0.600000*%
%TD*%
%TA.AperFunction,Conductor*%
%ADD23C,0.200000*%
%TD*%
G04 APERTURE END LIST*
D10*
%TO.P,J2,1,Pin_1*%
%TO.N,Net-(J2-Pin_1)*%
X155700000Y-95000000D03*
D11*
%TO.P,J2,2,Pin_2*%
%TO.N,Net-(J2-Pin_2)*%
X159300000Y-95000000D03*
%TO.P,J2,3,Pin_3*%
%TO.N,Net-(J2-Pin_3)*%
X162900000Y-95000000D03*
%TO.P,J2,4,Pin_4*%
%TO.N,GND*%
X166500000Y-95000000D03*
%TD*%
D12*
%TO.P,U2,1,Vcc*%
%TO.N,+5V*%
X135225000Y-95750000D03*
D13*
%TO.P,U2,2,D+*%
%TO.N,Net-(D1-K)*%
X135225000Y-98500000D03*
%TO.P,U2,3,D-*%
%TO.N,Net-(D2-K)*%
X135225000Y-100500000D03*
D12*
%TO.P,U2,4,GND*%
%TO.N,GND*%
X135225000Y-103250000D03*
%TD*%
D14*
%TO.P,U1,1,~{RESET}/PB5*%
%TO.N,Net-(J2-Pin_1)*%
X159150000Y-98500000D03*
%TO.P,U1,2,XTAL1/PB3*%
%TO.N,Net-(J2-Pin_2)*%
X159150000Y-99000000D03*
%TO.P,U1,3,NC*%
%TO.N,unconnected-(U1-NC-Pad3)*%
X159150000Y-99500000D03*
%TO.P,U1,4,NC*%
%TO.N,unconnected-(U1-NC-Pad4)*%
X159150000Y-100000000D03*
%TO.P,U1,5,XTAL2/PB4*%
%TO.N,Net-(J2-Pin_3)*%
X159150000Y-100500000D03*
D15*
%TO.P,U1,6,NC*%
%TO.N,unconnected-(U1-NC-Pad6)*%
X160075000Y-101425000D03*
%TO.P,U1,7,NC*%
%TO.N,unconnected-(U1-NC-Pad7)*%
X160575000Y-101425000D03*
%TO.P,U1,8,GND*%
%TO.N,GND*%
X161075000Y-101425000D03*
%TO.P,U1,9,NC*%
%TO.N,unconnected-(U1-NC-Pad9)*%
X161575000Y-101425000D03*
%TO.P,U1,10,NC*%
%TO.N,unconnected-(U1-NC-Pad10)*%
X162075000Y-101425000D03*
D14*
%TO.P,U1,11,AREF/PB0*%
%TO.N,Net-(J1-Pin_1)*%
X163000000Y-100500000D03*
%TO.P,U1,12,PB1*%
%TO.N,Net-(J1-Pin_2)*%
X163000000Y-100000000D03*
%TO.P,U1,13,NC*%
%TO.N,unconnected-(U1-NC-Pad13)*%
X163000000Y-99500000D03*
%TO.P,U1,14,PB2*%
%TO.N,Net-(J1-Pin_3)*%
X163000000Y-99000000D03*
%TO.P,U1,15,VCC*%
%TO.N,+5V*%
X163000000Y-98500000D03*
D15*
%TO.P,U1,16,NC*%
%TO.N,unconnected-(U1-NC-Pad16)*%
X162075000Y-97575000D03*
%TO.P,U1,17,NC*%
%TO.N,unconnected-(U1-NC-Pad17)*%
X161575000Y-97575000D03*
%TO.P,U1,18,NC*%
%TO.N,unconnected-(U1-NC-Pad18)*%
X161075000Y-97575000D03*
%TO.P,U1,19,NC*%
%TO.N,unconnected-(U1-NC-Pad19)*%
X160575000Y-97575000D03*
%TO.P,U1,20,NC*%
%TO.N,unconnected-(U1-NC-Pad20)*%
X160075000Y-97575000D03*
D16*
%TO.P,U1,21,GND*%
%TO.N,GND*%
X161075000Y-99500000D03*
%TD*%
D17*
%TO.P,R4,2*%
%TO.N,Net-(D1-K)*%
X156500000Y-99000000D03*
%TO.P,R4,1*%
%TO.N,Net-(J2-Pin_2)*%
X156500000Y-101000000D03*
%TD*%
D18*
%TO.P,R3,1*%
%TO.N,+5V*%
X150500000Y-95500000D03*
%TO.P,R3,2*%
%TO.N,Net-(D1-K)*%
X150500000Y-97500000D03*
%TD*%
%TO.P,R2,1*%
%TO.N,Net-(J1-Pin_2)*%
X166500000Y-99000000D03*
%TO.P,R2,2*%
%TO.N,Net-(D3-A)*%
X166500000Y-101000000D03*
%TD*%
D17*
%TO.P,R1,1*%
%TO.N,Net-(J2-Pin_3)*%
X150500000Y-103000000D03*
%TO.P,R1,2*%
%TO.N,Net-(D2-K)*%
X150500000Y-101000000D03*
%TD*%
D19*
%TO.P,D3,1,K*%
%TO.N,GND*%
X169000000Y-101625000D03*
%TO.P,D3,2,A*%
%TO.N,Net-(D3-A)*%
X169000000Y-98500000D03*
%TD*%
D20*
%TO.P,D2,1,K*%
%TO.N,Net-(D2-K)*%
X147000000Y-100700000D03*
%TO.P,D2,2,A*%
%TO.N,GND*%
X147000000Y-104000000D03*
%TD*%
%TO.P,D1,1,K*%
%TO.N,Net-(D1-K)*%
X153500000Y-98200000D03*
%TO.P,D1,2,A*%
%TO.N,GND*%
X153500000Y-101500000D03*
%TD*%
D21*
%TO.P,C1,1*%
%TO.N,+5V*%
X147000000Y-94875000D03*
%TO.P,C1,2*%
%TO.N,GND*%
X147000000Y-98000000D03*
%TD*%
D11*
%TO.P,J1,4,Pin_4*%
%TO.N,+5V*%
X166300000Y-103500000D03*
%TO.P,J1,3,Pin_3*%
%TO.N,Net-(J1-Pin_3)*%
X162700000Y-103500000D03*
%TO.P,J1,2,Pin_2*%
%TO.N,Net-(J1-Pin_2)*%
X159100000Y-103500000D03*
D10*
%TO.P,J1,1,Pin_1*%
%TO.N,Net-(J1-Pin_1)*%
X155500000Y-103500000D03*
%TD*%
D22*
%TO.N,GND*%
X168500000Y-95000000D03*
%TO.N,+5V*%
X153500000Y-100100000D03*
%TO.N,GND*%
X147000000Y-98000000D03*
X147000000Y-104000000D03*
X153500000Y-101500000D03*
X169000000Y-101625000D03*
X169000000Y-100000000D03*
X167500000Y-94000000D03*
X165500000Y-94000000D03*
X165500000Y-96000000D03*
X167500000Y-96000000D03*
X147000000Y-96500000D03*
X145000000Y-98000000D03*
X148500000Y-98000000D03*
X139000000Y-101500000D03*
X139500000Y-103000000D03*
X139500000Y-104500000D03*
X147000000Y-102500000D03*
X145000000Y-104000000D03*
%TO.N,+5V*%
X145000000Y-97000000D03*
X164100000Y-97100000D03*
%TO.N,Net-(J1-Pin_2)*%
X164500000Y-101500000D03*
X164500000Y-103000000D03*
%TO.N,Net-(J2-Pin_3)*%
X152000000Y-99500000D03*
X152000000Y-97500000D03*
%TO.N,Net-(J2-Pin_2)*%
X158000000Y-98500000D03*
X158500000Y-96500000D03*
%TD*%
D23*
%TO.N,GND*%
X166500000Y-95000000D02*
X168500000Y-95000000D01*
%TO.N,Net-(J2-Pin_3)*%
X156100000Y-101900000D02*
X157750000Y-101900000D01*
X157750000Y-101900000D02*
X159150000Y-100500000D01*
X155600000Y-102400000D02*
X156100000Y-101900000D01*
X151100000Y-102400000D02*
X155600000Y-102400000D01*
X150500000Y-103000000D02*
X151100000Y-102400000D01*
%TO.N,+5V*%
X145000000Y-97000000D02*
X145000000Y-95750000D01*
X145000000Y-95750000D02*
X146125000Y-95750000D01*
X135225000Y-95750000D02*
X145000000Y-95750000D01*
X164965686Y-97100000D02*
X164100000Y-97100000D01*
%TO.N,Net-(J1-Pin_1)*%
X163000000Y-101500000D02*
X163000000Y-100500000D01*
X162100000Y-102400000D02*
X163000000Y-101500000D01*
X156600000Y-102400000D02*
X162100000Y-102400000D01*
X155500000Y-103500000D02*
X156600000Y-102400000D01*
%TO.N,Net-(J1-Pin_2)*%
X164500000Y-101500000D02*
X164500000Y-100000000D01*
X164500000Y-100000000D02*
X163000000Y-100000000D01*
X165500000Y-100000000D02*
X164500000Y-100000000D01*
X164500000Y-104000000D02*
X164500000Y-103000000D01*
X160200000Y-104600000D02*
X163900000Y-104600000D01*
X163900000Y-104600000D02*
X164500000Y-104000000D01*
X159100000Y-103500000D02*
X160200000Y-104600000D01*
%TO.N,+5V*%
X170000000Y-103500000D02*
X170900000Y-102600000D01*
X166300000Y-103500000D02*
X170000000Y-103500000D01*
%TO.N,Net-(J1-Pin_3)*%
X170500000Y-102000000D02*
X170500000Y-98152756D01*
X169912500Y-102587500D02*
X170500000Y-102000000D01*
X168087500Y-102587500D02*
X169912500Y-102587500D01*
X167900000Y-102400000D02*
X168087500Y-102587500D01*
X163800000Y-102400000D02*
X167900000Y-102400000D01*
X162700000Y-103500000D02*
X163800000Y-102400000D01*
%TO.N,+5V*%
X147000000Y-94875000D02*
X148375000Y-94875000D01*
X149000000Y-95500000D02*
X150500000Y-95500000D01*
X148375000Y-94875000D02*
X149000000Y-95500000D01*
%TO.N,Net-(J2-Pin_3)*%
X152000000Y-101500000D02*
X150500000Y-103000000D01*
X152000000Y-99500000D02*
X152000000Y-101500000D01*
X152000000Y-96815256D02*
X152000000Y-97500000D01*
X154915256Y-93900000D02*
X152000000Y-96815256D01*
X161800000Y-93900000D02*
X154915256Y-93900000D01*
X162900000Y-95000000D02*
X161800000Y-93900000D01*
X162900000Y-95100000D02*
X162500000Y-95500000D01*
X162900000Y-95000000D02*
X162900000Y-95100000D01*
%TO.N,Net-(D3-A)*%
X169000000Y-98500000D02*
X166500000Y-101000000D01*
%TO.N,+5V*%
X164965686Y-97100000D02*
X163565686Y-98500000D01*
X170012930Y-97100000D02*
X164965686Y-97100000D01*
X170900000Y-97987070D02*
X170012930Y-97100000D01*
X170900000Y-102600000D02*
X170900000Y-97987070D01*
%TO.N,Net-(J1-Pin_2)*%
X166500000Y-99000000D02*
X165500000Y-100000000D01*
%TO.N,Net-(J1-Pin_3)*%
X169847244Y-97500000D02*
X165500000Y-97500000D01*
X165500000Y-97500000D02*
X164000000Y-99000000D01*
X164000000Y-99000000D02*
X163000000Y-99000000D01*
X170500000Y-98152756D02*
X169847244Y-97500000D01*
%TO.N,+5V*%
X163565686Y-98500000D02*
X163000000Y-98500000D01*
%TO.N,Net-(J2-Pin_2)*%
X158500000Y-99000000D02*
X159150000Y-99000000D01*
X158000000Y-98500000D02*
X158500000Y-99000000D01*
X158500000Y-95800000D02*
X158500000Y-96500000D01*
X159300000Y-95000000D02*
X158500000Y-95800000D01*
%TO.N,Net-(J2-Pin_1)*%
X155700000Y-95050000D02*
X159150000Y-98500000D01*
X155700000Y-95000000D02*
X155700000Y-95050000D01*
%TO.N,Net-(J2-Pin_2)*%
X158710614Y-99000000D02*
X159150000Y-99000000D01*
X156710614Y-101000000D02*
X158710614Y-99000000D01*
X156500000Y-101000000D02*
X156710614Y-101000000D01*
%TO.N,Net-(D1-K)*%
X153700000Y-98200000D02*
X154500000Y-99000000D01*
X153500000Y-98200000D02*
X153700000Y-98200000D01*
X154500000Y-99000000D02*
X156500000Y-99000000D01*
X151200000Y-98200000D02*
X150500000Y-97500000D01*
X153500000Y-98200000D02*
X151200000Y-98200000D01*
%TO.N,Net-(D2-K)*%
X150200000Y-100700000D02*
X150500000Y-101000000D01*
X147000000Y-100700000D02*
X150200000Y-100700000D01*
X146800000Y-100500000D02*
X147000000Y-100700000D01*
X135225000Y-100500000D02*
X146800000Y-100500000D01*
%TO.N,Net-(D1-K)*%
X148750000Y-99250000D02*
X150500000Y-97500000D01*
X135975000Y-99250000D02*
X148750000Y-99250000D01*
X135225000Y-98500000D02*
X135975000Y-99250000D01*
%TO.N,+5V*%
X146125000Y-95750000D02*
X147000000Y-94875000D01*
%TD*%
%TA.AperFunction,Conductor*%
%TO.N,GND*%
G36*
X145896358Y-101120185D02*
G01*
X145942113Y-101172989D01*
X145947025Y-101185496D01*
X145962996Y-101233694D01*
X145963001Y-101233705D01*
X146052029Y-101378040D01*
X146052032Y-101378044D01*
X146171955Y-101497967D01*
X146171959Y-101497970D01*
X146316294Y-101586998D01*
X146316297Y-101586999D01*
X146316303Y-101587003D01*
X146477292Y-101640349D01*
X146576655Y-101650500D01*
X147423344Y-101650499D01*
X147423352Y-101650498D01*
X147423355Y-101650498D01*
X147477760Y-101644940D01*
X147522708Y-101640349D01*
X147683697Y-101587003D01*
X147828044Y-101497968D01*
X147947968Y-101378044D01*
X147959465Y-101359403D01*
X148011412Y-101312679D01*
X148065004Y-101300500D01*
X149177357Y-101300500D01*
X149244396Y-101320185D01*
X149290151Y-101372989D01*
X149300715Y-101411898D01*
X149310001Y-101502797D01*
X149310001Y-101502799D01*
X149365185Y-101669331D01*
X149365187Y-101669336D01*
X149371305Y-101679255D01*
X149455993Y-101816557D01*
X149457289Y-101818657D01*
X149550951Y-101912319D01*
X149584436Y-101973642D01*
X149579452Y-102043334D01*
X149550951Y-102087681D01*
X149457289Y-102181342D01*
X149365187Y-102330663D01*
X149365186Y-102330666D01*
X149310001Y-102497203D01*
X149310001Y-102497204D01*
X149310000Y-102497204D01*
X149299500Y-102599983D01*
X149299500Y-103400001D01*
X149299501Y-103400019D01*
X149310000Y-103502796D01*
X149310001Y-103502799D01*
X149343388Y-103603552D01*
X149365186Y-103669334D01*
X149457288Y-103818656D01*
X149581344Y-103942712D01*
X149730666Y-104034814D01*
X149897203Y-104089999D01*
X149999991Y-104100500D01*
X151000008Y-104100499D01*
X151000016Y-104100498D01*
X151000019Y-104100498D01*
X151056302Y-104094748D01*
X151102797Y-104089999D01*
X151269334Y-104034814D01*
X151418656Y-103942712D01*
X151542712Y-103818656D01*
X151634814Y-103669334D01*
X151689999Y-103502797D01*
X151700500Y-103400009D01*
X151700500Y-103124500D01*
X151720185Y-103057461D01*
X151772989Y-103011706D01*
X151824500Y-103000500D01*
X154075500Y-103000500D01*
X154142539Y-103020185D01*
X154188294Y-103072989D01*
X154199500Y-103124500D01*
X154199500Y-104100001D01*
X154199501Y-104100019D01*
X154210000Y-104202796D01*
X154210001Y-104202799D01*
X154243248Y-104303129D01*
X154265186Y-104369334D01*
X154357288Y-104518656D01*
X154481344Y-104642712D01*
X154630666Y-104734814D01*
X154700016Y-104757794D01*
X154757461Y-104797567D01*
X154784284Y-104862083D01*
X154771969Y-104930858D01*
X154724426Y-104982058D01*
X154661012Y-104999500D01*
X147925167Y-104999500D01*
X147858128Y-104979815D01*
X147812373Y-104927011D01*
X147802429Y-104857853D01*
X147831454Y-104794297D01*
X147837486Y-104787819D01*
X147947572Y-104677732D01*
X147947575Y-104677728D01*
X148036542Y-104533492D01*
X148036547Y-104533481D01*
X148089855Y-104372606D01*
X148099999Y-104273322D01*
X148100000Y-104273309D01*
X148100000Y-104250000D01*
X145900001Y-104250000D01*
X145900001Y-104273322D01*
X145910144Y-104372607D01*
X145963452Y-104533481D01*
X145963457Y-104533492D01*
X146052424Y-104677728D01*
X146052427Y-104677732D01*
X146162514Y-104787819D01*
X146195999Y-104849142D01*
X146191015Y-104918834D01*
X146149143Y-104974767D01*
X146083679Y-104999184D01*
X146074833Y-104999500D01*
X132124500Y-104999500D01*
X132057461Y-104979815D01*
X132011706Y-104927011D01*
X132000500Y-104875500D01*
X132000500Y-104870710D01*
X132020185Y-104803671D01*
X132072989Y-104757916D01*
X132135484Y-104747197D01*
X132167004Y-104750000D01*
X133465001Y-104750000D01*
X133465001Y-104749999D01*
X134078552Y-104749999D01*
X134078553Y-104750000D01*
X136371448Y-104750000D01*
X136371448Y-104749999D01*
X135225000Y-103603552D01*
X135224999Y-103603552D01*
X134078552Y-104749999D01*
X133465001Y-104749999D01*
X133473011Y-104730661D01*
X133472421Y-104729581D01*
X133477405Y-104659889D01*
X133505906Y-104615542D01*
X134960543Y-103160905D01*
X135021866Y-103127420D01*
X135091558Y-103132404D01*
X135135905Y-103160905D01*
X135225000Y-103250000D01*
X135314095Y-103160905D01*
X135375418Y-103127420D01*
X135445110Y-103132404D01*
X135489457Y-103160905D01*
X136944094Y-104615542D01*
X136977579Y-104676865D01*
X136974211Y-104723953D01*
X136985000Y-104750000D01*
X138282998Y-104750000D01*
X138283000Y-104749999D01*
X138402325Y-104739391D01*
X138402328Y-104739390D01*
X138597861Y-104683442D01*
X138778129Y-104589278D01*
X138935753Y-104460753D01*
X139064278Y-104303129D01*
X139158442Y-104122861D01*
X139214390Y-103927328D01*
X139214391Y-103927325D01*
X139224999Y-103808000D01*
X139225000Y-103807998D01*
X139225000Y-103726677D01*
X145900000Y-103726677D01*
X145900000Y-103750000D01*
X146750000Y-103750000D01*
X147250000Y-103750000D01*
X148099999Y-103750000D01*
X148099999Y-103726692D01*
X148099998Y-103726677D01*
X148089855Y-103627392D01*
X148036547Y-103466518D01*
X148036542Y-103466507D01*
X147947575Y-103322271D01*
X147947572Y-103322267D01*
X147827732Y-103202427D01*
X147827728Y-103202424D01*
X147683492Y-103113457D01*
X147683481Y-103113452D01*
X147522606Y-103060144D01*
X147423322Y-103050000D01*
X147250000Y-103050000D01*
X147250000Y-103750000D01*
X146750000Y-103750000D01*
X146750000Y-103050000D01*
X146576693Y-103050000D01*
X146576676Y-103050001D01*
X146477392Y-103060144D01*
X146316518Y-103113452D01*
X146316507Y-103113457D01*
X146172271Y-103202424D01*
X146172267Y-103202427D01*
X146052427Y-103322267D01*
X146052424Y-103322271D01*
X145963457Y-103466507D01*
X145963452Y-103466518D01*
X145910144Y-103627393D01*
X145900000Y-103726677D01*
X139225000Y-103726677D01*
X139225000Y-102692002D01*
X139224999Y-102691999D01*
X139214391Y-102572674D01*
X139214390Y-102572671D01*
X139158442Y-102377138D01*
X139064278Y-102196870D01*
X138935753Y-102039246D01*
X138778129Y-101910721D01*
X138597862Y-101816557D01*
X138443234Y-101772313D01*
X138384196Y-101734945D01*
X138354733Y-101671592D01*
X138364198Y-101602366D01*
X138399656Y-101556453D01*
X138472722Y-101497722D01*
X138592030Y-101349296D01*
X138616231Y-101300500D01*
X138679628Y-101172671D01*
X138681535Y-101173617D01*
X138717131Y-101125590D01*
X138782478Y-101100860D01*
X138791916Y-101100500D01*
X145829319Y-101100500D01*
X145896358Y-101120185D01*
G37*
%TD.AperFunction*%
%TA.AperFunction,Conductor*%
G36*
X154374311Y-99588005D02*
G01*
X154420943Y-99600501D01*
X154420946Y-99600501D01*
X154586653Y-99600501D01*
X154586669Y-99600500D01*
X155254092Y-99600500D01*
X155321131Y-99620185D01*
X155359636Y-99664271D01*
X155361395Y-99663187D01*
X155365185Y-99669332D01*
X155365186Y-99669334D01*
X155451687Y-99809575D01*
X155457289Y-99818657D01*
X155550951Y-99912319D01*
X155584436Y-99973642D01*
X155579452Y-100043334D01*
X155550951Y-100087681D01*
X155457289Y-100181342D01*
X155365187Y-100330663D01*
X155365185Y-100330668D01*
X155355548Y-100359752D01*
X155310001Y-100497203D01*
X155310001Y-100497204D01*
X155310000Y-100497204D01*
X155299500Y-100599983D01*
X155299500Y-101400001D01*
X155299501Y-101400019D01*
X155310000Y-101502796D01*
X155330346Y-101564195D01*
X155354305Y-101636497D01*
X155356707Y-101706324D01*
X155320976Y-101766366D01*
X155258455Y-101797559D01*
X155236599Y-101799500D01*
X154700862Y-101799500D01*
X154633823Y-101779815D01*
X154613181Y-101763181D01*
X154600000Y-101750000D01*
X153624000Y-101750000D01*
X153556961Y-101730315D01*
X153511206Y-101677511D01*
X153500000Y-101626000D01*
X153500000Y-101374000D01*
X153519685Y-101306961D01*
X153572489Y-101261206D01*
X153624000Y-101250000D01*
X154599999Y-101250000D01*
X154599999Y-101226692D01*
X154599998Y-101226677D01*
X154589855Y-101127392D01*
X154536547Y-100966518D01*
X154536542Y-100966507D01*
X154447575Y-100822271D01*
X154447572Y-100822267D01*
X154327732Y-100702427D01*
X154327728Y-100702424D01*
X154246157Y-100652110D01*
X154199432Y-100600162D01*
X154188211Y-100531200D01*
X154206260Y-100480601D01*
X154225789Y-100449522D01*
X154285368Y-100279255D01*
X154285369Y-100279249D01*
X154305565Y-100100003D01*
X154305565Y-100099996D01*
X154285369Y-99920750D01*
X154285366Y-99920737D01*
X154225180Y-99748736D01*
X154221618Y-99678957D01*
X154256346Y-99618330D01*
X154318340Y-99586102D01*
X154374311Y-99588005D01*
G37*
%TD.AperFunction*%
%TA.AperFunction,Conductor*%
G36*
X169831590Y-99669343D02*
G01*
X169882475Y-99717223D01*
X169899500Y-99779932D01*
X169899500Y-100345569D01*
X169879815Y-100412608D01*
X169827011Y-100458363D01*
X169762899Y-100468927D01*
X169699991Y-100462500D01*
X169250000Y-100462500D01*
X169250000Y-101501000D01*
X169230315Y-101568039D01*
X169177511Y-101613794D01*
X169126000Y-101625000D01*
X168874000Y-101625000D01*
X168806961Y-101605315D01*
X168761206Y-101552511D01*
X168750000Y-101501000D01*
X168750000Y-100462500D01*
X168300028Y-100462500D01*
X168300012Y-100462501D01*
X168190569Y-100473682D01*
X168190389Y-100471924D01*
X168129534Y-100467363D01*
X168073744Y-100425300D01*
X168049551Y-100359752D01*
X168064637Y-100291531D01*
X168085580Y-100263653D01*
X168649916Y-99699318D01*
X168711239Y-99665833D01*
X168737597Y-99662999D01*
X169700002Y-99662999D01*
X169700008Y-99662999D01*
X169762899Y-99656574D01*
X169831590Y-99669343D01*
G37*
%TD.AperFunction*%
%TA.AperFunction,Conductor*%
G36*
X161857514Y-98484501D02*
G01*
X161857674Y-98483905D01*
X161865524Y-98486008D01*
X161865526Y-98486008D01*
X161865528Y-98486009D01*
X161968661Y-98499586D01*
X162032556Y-98527852D01*
X162071028Y-98586176D01*
X162075414Y-98606341D01*
X162088989Y-98709469D01*
X162091094Y-98717322D01*
X162087814Y-98718200D01*
X162093581Y-98772073D01*
X162090517Y-98782522D01*
X162091095Y-98782677D01*
X162088990Y-98790529D01*
X162074500Y-98900598D01*
X162074500Y-99099403D01*
X162088989Y-99209468D01*
X162091094Y-99217322D01*
X162087814Y-99218200D01*
X162093581Y-99272073D01*
X162090517Y-99282522D01*
X162091095Y-99282677D01*
X162088990Y-99290529D01*
X162074500Y-99400598D01*
X162074500Y-99599403D01*
X162088989Y-99709468D01*
X162091094Y-99717322D01*
X162087814Y-99718200D01*
X162093581Y-99772073D01*
X162090517Y-99782522D01*
X162091095Y-99782677D01*
X162088990Y-99790529D01*
X162074500Y-99900598D01*
X162074500Y-100099403D01*
X162088989Y-100209468D01*
X162091094Y-100217322D01*
X162087814Y-100218200D01*
X162093581Y-100272073D01*
X162090517Y-100282522D01*
X162091095Y-100282677D01*
X162088991Y-100290528D01*
X162075413Y-100393661D01*
X162047146Y-100457557D01*
X161988822Y-100496028D01*
X161968658Y-100500414D01*
X161865530Y-100513989D01*
X161857678Y-100516094D01*
X161856802Y-100512824D01*
X161802853Y-100518567D01*
X161792477Y-100515518D01*
X161792323Y-100516095D01*
X161784470Y-100513990D01*
X161674401Y-100499500D01*
X161475596Y-100499500D01*
X161365529Y-100513989D01*
X161357681Y-100516093D01*
X161356856Y-100513015D01*
X161302229Y-100518842D01*
X161292355Y-100515989D01*
X161292197Y-100516582D01*
X161284346Y-100514478D01*
X161200000Y-100503373D01*
X161200000Y-100531494D01*
X161180315Y-100598533D01*
X161151466Y-100629885D01*
X161150466Y-100630652D01*
X161085292Y-100655833D01*
X161016850Y-100641781D01*
X160999534Y-100630652D01*
X160998534Y-100629885D01*
X160957319Y-100573466D01*
X160950000Y-100531494D01*
X160950000Y-100503373D01*
X160865658Y-100514478D01*
X160857806Y-100516582D01*
X160856917Y-100513264D01*
X160802804Y-100518709D01*
X160792444Y-100515630D01*
X160792320Y-100516094D01*
X160784472Y-100513991D01*
X160674401Y-100499500D01*
X160475596Y-100499500D01*
X160365531Y-100513989D01*
X160357678Y-100516094D01*
X160356802Y-100512824D01*
X160302853Y-100518567D01*
X160292477Y-100515518D01*
X160292323Y-100516095D01*
X160284473Y-100513991D01*
X160284472Y-100513991D01*
X160250299Y-100509492D01*
X160181338Y-100500413D01*
X160117442Y-100472146D01*
X160078971Y-100413822D01*
X160074585Y-100393658D01*
X160061009Y-100290528D01*
X160061008Y-100290526D01*
X160061008Y-100290524D01*
X160058905Y-100282674D01*
X160062207Y-100281789D01*
X160056392Y-100228075D01*
X160059501Y-100217485D01*
X160058905Y-100217326D01*
X160061008Y-100209475D01*
X160061008Y-100209474D01*
X160061009Y-100209472D01*
X160075500Y-100099401D01*
X160075499Y-99900600D01*
X160075354Y-99899501D01*
X160064712Y-99818657D01*
X160061009Y-99790528D01*
X160061008Y-99790525D01*
X160058905Y-99782674D01*
X160062207Y-99781789D01*
X160056392Y-99728075D01*
X160059501Y-99717485D01*
X160058905Y-99717326D01*
X160061008Y-99709475D01*
X160061008Y-99709474D01*
X160061009Y-99709472D01*
X160075500Y-99599401D01*
X160075499Y-99400600D01*
X160061009Y-99290528D01*
X160061008Y-99290525D01*
X160058905Y-99282674D01*
X160062207Y-99281789D01*
X160056392Y-99228075D01*
X160059501Y-99217485D01*
X160058905Y-99217326D01*
X160061008Y-99209475D01*
X160061008Y-99209474D01*
X160061009Y-99209472D01*
X160075500Y-99099401D01*
X160075499Y-98900600D01*
X160061009Y-98790528D01*
X160061008Y-98790525D01*
X160058905Y-98782674D01*
X160062207Y-98781789D01*
X160056392Y-98728075D01*
X160059501Y-98717485D01*
X160058905Y-98717326D01*
X160061008Y-98709475D01*
X160061008Y-98709474D01*
X160061009Y-98709472D01*
X160074586Y-98606337D01*
X160102852Y-98542443D01*
X160161176Y-98503971D01*
X160181337Y-98499585D01*
X160284472Y-98486009D01*
X160284474Y-98486008D01*
X160284475Y-98486008D01*
X160292326Y-98483905D01*
X160293210Y-98487207D01*
X160346925Y-98481392D01*
X160357514Y-98484501D01*
X160357674Y-98483905D01*
X160365524Y-98486008D01*
X160365526Y-98486008D01*
X160365528Y-98486009D01*
X160475599Y-98500500D01*
X160674400Y-98500499D01*
X160674401Y-98500499D01*
X160691087Y-98498302D01*
X160784472Y-98486009D01*
X160784475Y-98486007D01*
X160792326Y-98483905D01*
X160793210Y-98487207D01*
X160846925Y-98481392D01*
X160857514Y-98484501D01*
X160857674Y-98483905D01*
X160865524Y-98486008D01*
X160865526Y-98486008D01*
X160865528Y-98486009D01*
X160975599Y-98500500D01*
X161174400Y-98500499D01*
X161174401Y-98500499D01*
X161191087Y-98498302D01*
X161284472Y-98486009D01*
X161284475Y-98486007D01*
X161292326Y-98483905D01*
X161293210Y-98487207D01*
X161346925Y-98481392D01*
X161357514Y-98484501D01*
X161357674Y-98483905D01*
X161365524Y-98486008D01*
X161365526Y-98486008D01*
X161365528Y-98486009D01*
X161475599Y-98500500D01*
X161674400Y-98500499D01*
X161674401Y-98500499D01*
X161691087Y-98498302D01*
X161784472Y-98486009D01*
X161784475Y-98486007D01*
X161792326Y-98483905D01*
X161793210Y-98487207D01*
X161846925Y-98481392D01*
X161857514Y-98484501D01*
G37*
%TD.AperFunction*%
%TA.AperFunction,Conductor*%
G36*
X148368149Y-95733231D02*
G01*
X148412497Y-95761732D01*
X148515139Y-95864374D01*
X148515149Y-95864385D01*
X148519479Y-95868715D01*
X148519480Y-95868716D01*
X148631284Y-95980520D01*
X148631286Y-95980521D01*
X148631290Y-95980524D01*
X148730841Y-96037999D01*
X148768216Y-96059577D01*
X148880019Y-96089534D01*
X148920942Y-96100500D01*
X148920943Y-96100500D01*
X149254092Y-96100500D01*
X149321131Y-96120185D01*
X149359636Y-96164271D01*
X149361395Y-96163187D01*
X149365185Y-96169332D01*
X149365186Y-96169334D01*
X149454806Y-96314632D01*
X149457289Y-96318657D01*
X149550951Y-96412319D01*
X149584436Y-96473642D01*
X149579452Y-96543334D01*
X149550951Y-96587681D01*
X149457289Y-96681342D01*
X149365187Y-96830663D01*
X149365185Y-96830668D01*
X149358937Y-96849523D01*
X149310001Y-96997203D01*
X149310001Y-96997204D01*
X149310000Y-96997204D01*
X149299500Y-97099983D01*
X149299500Y-97799901D01*
X149279815Y-97866940D01*
X149263181Y-97887582D01*
X148611681Y-98539083D01*
X148550358Y-98572568D01*
X148480667Y-98567584D01*
X148424733Y-98525713D01*
X148400316Y-98460248D01*
X148400000Y-98451402D01*
X148400000Y-98250000D01*
X145600001Y-98250000D01*
X145600001Y-98462484D01*
X145605152Y-98512897D01*
X145592383Y-98581590D01*
X145544503Y-98632475D01*
X145481794Y-98649500D01*
X138849500Y-98649500D01*
X138782461Y-98629815D01*
X138736706Y-98577011D01*
X138725500Y-98525500D01*
X138725499Y-98048878D01*
X138722600Y-98006111D01*
X138676641Y-97821307D01*
X138666025Y-97799901D01*
X138592032Y-97650707D01*
X138592030Y-97650704D01*
X138553091Y-97602262D01*
X138472722Y-97502278D01*
X138400135Y-97443931D01*
X138360218Y-97386588D01*
X138357638Y-97316766D01*
X138393217Y-97256634D01*
X138443709Y-97228071D01*
X138598049Y-97183909D01*
X138778407Y-97089698D01*
X138936109Y-96961109D01*
X139064698Y-96803407D01*
X139158909Y-96623049D01*
X139211174Y-96440387D01*
X139248541Y-96381351D01*
X139311895Y-96351887D01*
X139330390Y-96350500D01*
X144238339Y-96350500D01*
X144305378Y-96370185D01*
X144351133Y-96422989D01*
X144361077Y-96492147D01*
X144343332Y-96540473D01*
X144274211Y-96650475D01*
X144214631Y-96820745D01*
X144214630Y-96820750D01*
X144194435Y-96999996D01*
X144194435Y-97000003D01*
X144214630Y-97179249D01*
X144214631Y-97179254D01*
X144274211Y-97349523D01*
X144295735Y-97383778D01*
X144370184Y-97502262D01*
X144497738Y-97629816D01*
X144555807Y-97666303D01*
X144644374Y-97721954D01*
X144650478Y-97725789D01*
X144721098Y-97750500D01*
X144820745Y-97785368D01*
X144820750Y-97785369D01*
X144999996Y-97805565D01*
X145000000Y-97805565D01*
X145000004Y-97805565D01*
X145179249Y-97785369D01*
X145179252Y-97785368D01*
X145179255Y-97785368D01*
X145349522Y-97725789D01*
X145355626Y-97721954D01*
X145410027Y-97687771D01*
X145477264Y-97668770D01*
X145544099Y-97689137D01*
X145571954Y-97721954D01*
X145600000Y-97750000D01*
X146750000Y-97750000D01*
X147250000Y-97750000D01*
X148399999Y-97750000D01*
X148399999Y-97537528D01*
X148399998Y-97537513D01*
X148389505Y-97434802D01*
X148334358Y-97268380D01*
X148334356Y-97268375D01*
X148242315Y-97119154D01*
X148118345Y-96995184D01*
X147969124Y-96903143D01*
X147969119Y-96903141D01*
X147802697Y-96847994D01*
X147802690Y-96847993D01*
X147699986Y-96837500D01*
X147250000Y-96837500D01*
X147250000Y-97750000D01*
X146750000Y-97750000D01*
X146750000Y-96837500D01*
X146300028Y-96837500D01*
X146300012Y-96837501D01*
X146197302Y-96847994D01*
X146030880Y-96903141D01*
X146030871Y-96903146D01*
X145976425Y-96936728D01*
X145909032Y-96955168D01*
X145842369Y-96934245D01*
X145797600Y-96880602D01*
X145788109Y-96845074D01*
X145785368Y-96820745D01*
X145725789Y-96650478D01*
X145725788Y-96650475D01*
X145656668Y-96540473D01*
X145637667Y-96473236D01*
X145658034Y-96406401D01*
X145711302Y-96361186D01*
X145761661Y-96350500D01*
X146038331Y-96350500D01*
X146038347Y-96350501D01*
X146045943Y-96350501D01*
X146204054Y-96350501D01*
X146204057Y-96350501D01*
X146356785Y-96309577D01*
X146418040Y-96274211D01*
X146493716Y-96230520D01*
X146605520Y-96118716D01*
X146605520Y-96118714D01*
X146615722Y-96108513D01*
X146615725Y-96108508D01*
X146649919Y-96074314D01*
X146711241Y-96040832D01*
X146737597Y-96037999D01*
X147700002Y-96037999D01*
X147700008Y-96037999D01*
X147802797Y-96027499D01*
X147969334Y-95972314D01*
X148118656Y-95880212D01*
X148237138Y-95761729D01*
X148298457Y-95728247D01*
X148368149Y-95733231D01*
G37*
%TD.AperFunction*%
%TA.AperFunction,Conductor*%
G36*
X165716783Y-93820185D02*
G01*
X165762538Y-93872989D01*
X165770028Y-93916476D01*
X166499999Y-94646446D01*
X167230646Y-93915800D01*
X167240492Y-93866808D01*
X167289107Y-93816625D01*
X167350254Y-93800500D01*
X170875500Y-93800500D01*
X170942539Y-93820185D01*
X170988294Y-93872989D01*
X170999500Y-93924500D01*
X170999500Y-96937973D01*
X170979815Y-97005012D01*
X170927011Y-97050767D01*
X170857853Y-97060711D01*
X170794297Y-97031686D01*
X170787819Y-97025654D01*
X170500520Y-96738355D01*
X170500518Y-96738352D01*
X170381647Y-96619481D01*
X170381639Y-96619475D01*
X170279866Y-96560717D01*
X170279864Y-96560716D01*
X170244720Y-96540425D01*
X170244719Y-96540424D01*
X170218322Y-96533351D01*
X170091987Y-96499499D01*
X169933873Y-96499499D01*
X169926277Y-96499499D01*
X169926261Y-96499500D01*
X166868480Y-96499500D01*
X166801441Y-96479815D01*
X166755686Y-96427011D01*
X166745742Y-96357853D01*
X166774767Y-96294297D01*
X166833545Y-96256523D01*
X166836387Y-96255725D01*
X166946317Y-96226269D01*
X166946331Y-96226264D01*
X167152478Y-96130136D01*
X167225471Y-96079024D01*
X166500000Y-95353553D01*
X165774526Y-96079025D01*
X165847513Y-96130132D01*
X165847521Y-96130136D01*
X166053668Y-96226264D01*
X166053682Y-96226269D01*
X166163613Y-96255725D01*
X166223274Y-96292090D01*
X166253803Y-96354937D01*
X166245508Y-96424312D01*
X166201023Y-96478190D01*
X166134471Y-96499465D01*
X166131520Y-96499500D01*
X165052355Y-96499500D01*
X165052339Y-96499499D01*
X165044743Y-96499499D01*
X164886629Y-96499499D01*
X164879033Y-96499499D01*
X164879017Y-96499500D01*
X164682412Y-96499500D01*
X164615373Y-96479815D01*
X164605097Y-96472445D01*
X164602263Y-96470185D01*
X164602262Y-96470184D01*
X164527152Y-96422989D01*
X164449523Y-96374211D01*
X164279254Y-96314631D01*
X164279249Y-96314630D01*
X164100004Y-96294435D01*
X164099996Y-96294435D01*
X163920750Y-96314630D01*
X163920745Y-96314631D01*
X163750476Y-96374211D01*
X163597737Y-96470184D01*
X163470184Y-96597737D01*
X163374211Y-96750476D01*
X163314631Y-96920745D01*
X163314630Y-96920750D01*
X163294435Y-97099996D01*
X163294435Y-97100003D01*
X163314630Y-97279249D01*
X163314631Y-97279254D01*
X163374211Y-97449523D01*
X163473141Y-97606968D01*
X163492141Y-97674205D01*
X163471773Y-97741040D01*
X163455829Y-97760621D01*
X163378267Y-97838182D01*
X163316947Y-97871666D01*
X163290588Y-97874500D01*
X162824499Y-97874500D01*
X162757460Y-97854815D01*
X162711705Y-97802011D01*
X162700499Y-97750500D01*
X162700499Y-97175596D01*
X162686011Y-97065536D01*
X162686009Y-97065529D01*
X162686009Y-97065528D01*
X162629279Y-96928571D01*
X162539036Y-96810964D01*
X162421429Y-96720721D01*
X162421425Y-96720719D01*
X162284472Y-96663991D01*
X162284470Y-96663990D01*
X162174401Y-96649500D01*
X161975596Y-96649500D01*
X161865531Y-96663989D01*
X161857678Y-96666094D01*
X161856802Y-96662824D01*
X161802853Y-96668567D01*
X161792477Y-96665518D01*
X161792323Y-96666095D01*
X161784470Y-96663990D01*
X161674401Y-96649500D01*
X161475596Y-96649500D01*
X161365531Y-96663989D01*
X161357678Y-96666094D01*
X161356802Y-96662824D01*
X161302853Y-96668567D01*
X161292477Y-96665518D01*
X161292323Y-96666095D01*
X161284470Y-96663990D01*
X161174401Y-96649500D01*
X160975596Y-96649500D01*
X160865531Y-96663989D01*
X160857678Y-96666094D01*
X160856802Y-96662824D01*
X160802853Y-96668567D01*
X160792477Y-96665518D01*
X160792323Y-96666095D01*
X160784470Y-96663990D01*
X160674401Y-96649500D01*
X160475596Y-96649500D01*
X160365531Y-96663989D01*
X160357678Y-96666094D01*
X160356802Y-96662824D01*
X160302853Y-96668567D01*
X160292477Y-96665518D01*
X160292323Y-96666095D01*
X160284470Y-96663990D01*
X160174401Y-96649500D01*
X159975596Y-96649500D01*
X159865536Y-96663988D01*
X159865527Y-96663991D01*
X159728574Y-96720719D01*
X159728571Y-96720720D01*
X159728571Y-96720721D01*
X159610964Y-96810964D01*
X159526723Y-96920750D01*
X159520719Y-96928574D01*
X159463991Y-97065527D01*
X159463990Y-97065529D01*
X159452807Y-97150478D01*
X159449501Y-97175596D01*
X159449500Y-97175605D01*
X159449500Y-97650902D01*
X159429815Y-97717941D01*
X159377011Y-97763696D01*
X159307853Y-97773640D01*
X159244297Y-97744615D01*
X159237819Y-97738583D01*
X158883014Y-97383778D01*
X158849529Y-97322455D01*
X158854513Y-97252763D01*
X158896385Y-97196830D01*
X158904707Y-97191113D01*
X159002262Y-97129816D01*
X159129816Y-97002262D01*
X159225789Y-96849522D01*
X159285368Y-96679255D01*
X159285369Y-96679249D01*
X159305565Y-96500003D01*
X159305565Y-96499998D01*
X159302007Y-96468422D01*
X159298040Y-96433215D01*
X159310094Y-96364395D01*
X159357443Y-96313015D01*
X159410450Y-96295804D01*
X159526692Y-96285635D01*
X159746496Y-96226739D01*
X159952734Y-96130568D01*
X160139139Y-96000047D01*
X160300047Y-95839139D01*
X160430568Y-95652734D01*
X160526739Y-95446496D01*
X160585635Y-95226692D01*
X160605468Y-95000000D01*
X160585635Y-94773308D01*
X160565992Y-94700000D01*
X160554362Y-94656593D01*
X160556025Y-94586743D01*
X160595188Y-94528881D01*
X160659417Y-94501377D01*
X160674137Y-94500500D01*
X161499903Y-94500500D01*
X161566942Y-94520185D01*
X161587584Y-94536819D01*
X161608058Y-94557293D01*
X161641543Y-94618616D01*
X161640152Y-94677067D01*
X161614366Y-94773302D01*
X161614364Y-94773313D01*
X161594532Y-94999998D01*
X161594532Y-95000001D01*
X161614364Y-95226686D01*
X161614366Y-95226697D01*
X161673258Y-95446488D01*
X161673261Y-95446497D01*
X161769431Y-95652732D01*
X161769432Y-95652734D01*
X161899954Y-95839141D01*
X162060858Y-96000045D01*
X162060861Y-96000047D01*
X162247266Y-96130568D01*
X162453504Y-96226739D01*
X162673308Y-96285635D01*
X162835230Y-96299801D01*
X162899998Y-96305468D01*
X162900000Y-96305468D01*
X162900002Y-96305468D01*
X162956796Y-96300499D01*
X163126692Y-96285635D01*
X163346496Y-96226739D01*
X163552734Y-96130568D01*
X163739139Y-96000047D01*
X163900047Y-95839139D01*
X164030568Y-95652734D01*
X164126739Y-95446496D01*
X164185635Y-95226692D01*
X164205468Y-95000000D01*
X164205468Y-94999997D01*
X165195034Y-94999997D01*
X165195034Y-95000002D01*
X165214858Y-95226599D01*
X165214860Y-95226610D01*
X165273730Y-95446317D01*
X165273735Y-95446331D01*
X165369863Y-95652478D01*
X165420974Y-95725472D01*
X166146446Y-95000001D01*
X166146446Y-94999999D01*
X166106951Y-94960504D01*
X166200000Y-94960504D01*
X166200000Y-95039496D01*
X166220444Y-95115796D01*
X166259940Y-95184205D01*
X166315795Y-95240060D01*
X166384204Y-95279556D01*
X166460504Y-95300000D01*
X166539496Y-95300000D01*
X166615796Y-95279556D01*
X166684205Y-95240060D01*
X166740060Y-95184205D01*
X166779556Y-95115796D01*
X166800000Y-95039496D01*
X166800000Y-94999999D01*
X166853553Y-94999999D01*
X166853553Y-95000000D01*
X167579024Y-95725471D01*
X167630136Y-95652478D01*
X167726264Y-95446331D01*
X167726269Y-95446317D01*
X167785139Y-95226610D01*
X167785141Y-95226599D01*
X167804966Y-95000002D01*
X167804966Y-94999997D01*
X167785141Y-94773400D01*
X167785139Y-94773389D01*
X167726269Y-94553682D01*
X167726264Y-94553668D01*
X167630136Y-94347521D01*
X167630132Y-94347513D01*
X167579025Y-94274526D01*
X166853553Y-94999999D01*
X166800000Y-94999999D01*
X166800000Y-94960504D01*
X166779556Y-94884204D01*
X166740060Y-94815795D01*
X166684205Y-94759940D01*
X166615796Y-94720444D01*
X166539496Y-94700000D01*
X166460504Y-94700000D01*
X166384204Y-94720444D01*
X166315795Y-94759940D01*
X166259940Y-94815795D01*
X166220444Y-94884204D01*
X166200000Y-94960504D01*
X166106951Y-94960504D01*
X165420974Y-94274526D01*
X165420973Y-94274526D01*
X165369868Y-94347512D01*
X165369866Y-94347516D01*
X165273734Y-94553673D01*
X165273730Y-94553682D01*
X165214860Y-94773389D01*
X165214858Y-94773400D01*
X165195034Y-94999997D01*
X164205468Y-94999997D01*
X164185635Y-94773308D01*
X164126739Y-94553504D01*
X164030568Y-94347266D01*
X163900047Y-94160861D01*
X163900045Y-94160858D01*
X163751368Y-94012181D01*
X163717883Y-93950858D01*
X163722867Y-93881166D01*
X163764739Y-93825233D01*
X163830203Y-93800816D01*
X163839049Y-93800500D01*
X165649744Y-93800500D01*
X165716783Y-93820185D01*
G37*
%TD.AperFunction*%
%TD*%
M02*
